<svg width="262" height="45" viewBox="0 0 262 45" fill="none" xmlns="http://www.w3.org/2000/svg">
<path d="M0.264 35V1.112H5.64L18.984 21.896H16.248L29.544 1.112H34.968V35H27.432V13.832L28.776 14.168L20.088 27.704H15.096L6.456 14.168L7.752 13.832V35H0.264ZM47.9951 35.096L38.3951 11.672H46.3151L52.4111 30.248H49.4831L55.7231 11.672H63.6431L53.6591 35.096H47.9951ZM41.9951 44.84L49.0031 29.72L53.6591 35.096L49.5311 44.84H41.9951ZM83.1878 35.528C80.6598 35.528 78.3078 35.096 76.1318 34.232C73.9878 33.336 72.0998 32.088 70.4678 30.488C68.8678 28.888 67.6198 27.032 66.7238 24.92C65.8278 22.776 65.3798 20.472 65.3798 18.008C65.3798 15.544 65.8278 13.256 66.7238 11.144C67.6198 9 68.8678 7.144 70.4678 5.576C72.0678 4.008 73.9398 2.792 76.0838 1.928C78.2598 1.032 80.6118 0.584 83.1398 0.584C85.8278 0.584 88.2118 1.016 90.2917 1.88C92.4038 2.744 94.2438 3.928 95.8118 5.432L90.7718 10.52C89.8758 9.56 88.7878 8.808 87.5078 8.264C86.2598 7.72 84.8038 7.448 83.1398 7.448C81.6678 7.448 80.3078 7.704 79.0598 8.216C77.8438 8.696 76.7878 9.4 75.8918 10.328C75.0278 11.256 74.3398 12.376 73.8278 13.688C73.3478 15 73.1078 16.44 73.1078 18.008C73.1078 19.608 73.3478 21.064 73.8278 22.376C74.3398 23.688 75.0278 24.808 75.8918 25.736C76.7878 26.664 77.8438 27.384 79.0598 27.896C80.3078 28.408 81.6678 28.664 83.1398 28.664C84.8678 28.664 86.3718 28.392 87.6518 27.848C88.9318 27.304 90.0358 26.552 90.9637 25.592L96.0518 30.68C94.4198 32.184 92.5478 33.368 90.4358 34.232C88.3558 35.096 85.9398 35.528 83.1878 35.528ZM110.199 35.528C107.799 35.528 105.623 35 103.671 33.944C101.751 32.856 100.231 31.384 99.111 29.528C97.991 27.672 97.431 25.592 97.431 23.288C97.431 20.984 97.991 18.92 99.111 17.096C100.231 15.272 101.751 13.832 103.671 12.776C105.591 11.688 107.767 11.144 110.199 11.144C112.631 11.144 114.807 11.672 116.727 12.728C118.647 13.784 120.167 15.24 121.287 17.096C122.407 18.92 122.967 20.984 122.967 23.288C122.967 25.592 122.407 27.672 121.287 29.528C120.167 31.384 118.647 32.856 116.727 33.944C114.807 35 112.631 35.528 110.199 35.528ZM110.199 28.856C111.255 28.856 112.183 28.632 112.983 28.184C113.783 27.704 114.391 27.048 114.807 26.216C115.255 25.352 115.479 24.376 115.479 23.288C115.479 22.2 115.255 21.256 114.807 20.456C114.359 19.624 113.735 18.984 112.935 18.536C112.167 18.056 111.255 17.816 110.199 17.816C109.175 17.816 108.263 18.056 107.463 18.536C106.663 18.984 106.039 19.624 105.591 20.456C105.143 21.288 104.919 22.248 104.919 23.336C104.919 24.392 105.143 25.352 105.591 26.216C106.039 27.048 106.663 27.704 107.463 28.184C108.263 28.632 109.175 28.856 110.199 28.856ZM142.031 35V21.704C142.031 20.488 141.647 19.512 140.879 18.776C140.143 18.008 139.199 17.624 138.047 17.624C137.247 17.624 136.543 17.8 135.935 18.152C135.327 18.472 134.847 18.952 134.495 19.592C134.143 20.2 133.967 20.904 133.967 21.704L131.135 20.312C131.135 18.488 131.535 16.888 132.335 15.512C133.135 14.136 134.239 13.08 135.647 12.344C137.087 11.576 138.703 11.192 140.495 11.192C142.223 11.192 143.743 11.608 145.055 12.44C146.399 13.24 147.455 14.312 148.223 15.656C148.991 17 149.375 18.472 149.375 20.072V35H142.031ZM126.623 35V11.672H133.967V35H126.623ZM157.123 35V2.024H164.467V35H157.123ZM151.843 17.912V11.672H169.747V17.912H151.843ZM182.258 35.48C180.114 35.48 178.194 34.952 176.498 33.896C174.834 32.84 173.506 31.4 172.514 29.576C171.554 27.752 171.074 25.672 171.074 23.336C171.074 21 171.554 18.92 172.514 17.096C173.506 15.272 174.834 13.832 176.498 12.776C178.194 11.72 180.114 11.192 182.258 11.192C183.826 11.192 185.234 11.496 186.482 12.104C187.762 12.712 188.802 13.56 189.602 14.648C190.402 15.704 190.85 16.92 190.946 18.296V28.376C190.85 29.752 190.402 30.984 189.602 32.072C188.834 33.128 187.81 33.96 186.53 34.568C185.25 35.176 183.826 35.48 182.258 35.48ZM183.746 28.856C185.314 28.856 186.578 28.344 187.538 27.32C188.498 26.264 188.978 24.936 188.978 23.336C188.978 22.248 188.754 21.288 188.306 20.456C187.89 19.624 187.282 18.984 186.482 18.536C185.714 18.056 184.818 17.816 183.794 17.816C182.77 17.816 181.858 18.056 181.058 18.536C180.29 18.984 179.666 19.624 179.186 20.456C178.738 21.288 178.514 22.248 178.514 23.336C178.514 24.392 178.738 25.336 179.186 26.168C179.634 27 180.258 27.656 181.058 28.136C181.858 28.616 182.754 28.856 183.746 28.856ZM188.69 35V28.712L189.794 23.048L188.69 17.384V11.672H195.89V35H188.69ZM212.341 35.528C209.941 35.528 207.765 35 205.813 33.944C203.861 32.888 202.325 31.432 201.205 29.576C200.085 27.72 199.525 25.64 199.525 23.336C199.525 21 200.085 18.92 201.205 17.096C202.357 15.24 203.909 13.784 205.861 12.728C207.813 11.672 210.005 11.144 212.437 11.144C214.261 11.144 215.925 11.464 217.429 12.104C218.965 12.712 220.325 13.64 221.509 14.888L216.805 19.592C216.261 18.984 215.621 18.536 214.885 18.248C214.181 17.96 213.365 17.816 212.437 17.816C211.381 17.816 210.437 18.056 209.605 18.536C208.805 18.984 208.165 19.624 207.685 20.456C207.237 21.256 207.013 22.2 207.013 23.288C207.013 24.376 207.237 25.336 207.685 26.168C208.165 27 208.821 27.656 209.653 28.136C210.485 28.616 211.413 28.856 212.437 28.856C213.397 28.856 214.245 28.696 214.981 28.376C215.749 28.024 216.405 27.544 216.949 26.936L221.605 31.64C220.389 32.92 219.013 33.896 217.477 34.568C215.941 35.208 214.229 35.528 212.341 35.528ZM227.81 35V2.024H235.154V35H227.81ZM222.53 17.912V11.672H240.434V17.912H222.53ZM251.697 35.576C250.321 35.576 248.961 35.4 247.617 35.048C246.305 34.696 245.073 34.2 243.921 33.56C242.801 32.888 241.841 32.12 241.041 31.256L245.217 27.032C245.985 27.864 246.897 28.52 247.953 29C249.009 29.448 250.161 29.672 251.409 29.672C252.273 29.672 252.929 29.544 253.377 29.288C253.857 29.032 254.097 28.68 254.097 28.232C254.097 27.656 253.809 27.224 253.233 26.936C252.689 26.616 251.985 26.344 251.121 26.12C250.257 25.864 249.345 25.592 248.385 25.304C247.425 25.016 246.513 24.616 245.649 24.104C244.785 23.592 244.081 22.888 243.537 21.992C242.993 21.064 242.721 19.896 242.721 18.488C242.721 16.984 243.105 15.688 243.873 14.6C244.641 13.48 245.729 12.6 247.137 11.96C248.545 11.32 250.193 11 252.081 11C254.065 11 255.889 11.352 257.553 12.056C259.249 12.728 260.625 13.736 261.681 15.08L257.505 19.304C256.769 18.44 255.937 17.832 255.009 17.48C254.113 17.128 253.233 16.952 252.369 16.952C251.537 16.952 250.913 17.08 250.497 17.336C250.081 17.56 249.873 17.896 249.873 18.344C249.873 18.824 250.145 19.208 250.689 19.496C251.233 19.784 251.937 20.04 252.801 20.264C253.665 20.488 254.577 20.76 255.537 21.08C256.497 21.4 257.409 21.832 258.273 22.376C259.137 22.92 259.841 23.656 260.385 24.584C260.929 25.48 261.201 26.664 261.201 28.136C261.201 30.408 260.337 32.216 258.609 33.56C256.913 34.904 254.609 35.576 251.697 35.576Z" fill="url(#paint0_linear_1_4)"/>
<defs>
<linearGradient id="paint0_linear_1_4" x1="-3" y1="-13" x2="263" y2="47" gradientUnits="userSpaceOnUse">
<stop stop-color="#0CA754"/>
<stop offset="1" stop-color="#001A0C"/>
</linearGradient>
</defs>
</svg>
